<svg xmlns="http://www.w3.org/2000/svg" viewBox="551.746 254.828 33.895 31.827">
  <defs>
    <style>
      .cls-1 {
        fill: #25b2b2;
      }
    </style>
  </defs>
  <path id="prev_song_button" data-name="prev song button" class="cls-1" d="M1.634,31.478A3.063,3.063,0,0,1,0,28.773V3.055A3.053,3.053,0,0,1,4.786.539L23.478,13.4a3.05,3.05,0,0,1,.5.427V4.961a4.96,4.96,0,1,1,9.921,0V26.455a4.96,4.96,0,0,1-9.921,0V18a3.053,3.053,0,0,1-.5.427L4.786,31.288a3.06,3.06,0,0,1-3.153.189Z" transform="translate(585.64 286.655) rotate(180)"/>
</svg>
